<svg width="19" height="19" viewBox="0 0 19 19" fill="none" xmlns="http://www.w3.org/2000/svg">
<path d="M16.7499 4.21267H13.5595C14.3347 4.21163 14.9794 3.57862 14.9804 2.80344C14.9815 2.02825 14.3539 1.40068 13.5787 1.40172C13.5799 0.53003 12.7861 -0.155023 11.8814 0.0306222C11.2227 0.165768 10.7678 0.777191 10.7678 1.44968V1.73219C10.5557 1.54086 10.2777 1.42102 9.9702 1.42102H8.37497C8.06744 1.42102 7.78952 1.54086 7.57736 1.73219V1.44968C7.57736 0.777141 7.12251 0.165768 6.46373 0.0305724C5.55904 -0.155073 4.76526 0.52998 4.76641 1.40167C3.99127 1.40063 3.3637 2.0282 3.36469 2.80339C3.36579 3.57862 4.01051 4.21163 4.7857 4.21267H1.59523C0.714216 4.21267 0 4.92689 0 5.80791V6.20671C0 7.08773 0.714216 7.80195 1.59523 7.80195H6.38093V8.59956H1.19642V16.6395C1.19642 17.4853 1.88208 18.171 2.72785 18.171H6.38093C6.82146 18.171 7.17855 17.8139 7.17855 17.3733V4.61148H11.1666V17.3733C11.1666 17.8139 11.5237 18.171 11.9642 18.171H15.6173C16.4631 18.171 17.1488 17.4853 17.1488 16.6395V8.59956H11.9642V7.80195H16.7499C17.631 7.80195 18.3452 7.08773 18.3452 6.20671V5.80791C18.3452 4.92689 17.631 4.21267 16.7499 4.21267ZM7.97616 3.81387V2.61744C7.97616 2.3976 8.15493 2.21863 8.37497 2.21863H9.9702C10.1902 2.21863 10.369 2.3976 10.369 2.61744V3.81387H7.97616Z" fill="white"/>
</svg>
